<svg xmlns="http://www.w3.org/2000/svg" viewBox="0 0 6290.24 524.34"><defs><style>.cls-1{font-size:200px;fill:#449ad5;stroke:#fff;stroke-miterlimit:10;stroke-width:2px;font-family:Fenice-RegularOblique, ITC Fenice;font-style:oblique;}</style></defs><g id="Layer_2" data-name="Layer 2"><g id="Layer_1-2" data-name="Layer 1"><text class="cls-1" transform="translate(129.85 269.94) rotate(-19.17)"> </text><text class="cls-1" transform="translate(181.3 252.03) rotate(-17.26)"> </text><text class="cls-1" transform="matrix(0.96, -0.26, 0.26, 0.96, 233.31, 235.85)"> </text><text class="cls-1" transform="matrix(0.97, -0.23, 0.23, 0.97, 285.84, 221.42)"> </text><text class="cls-1" transform="translate(338.77 208.78) rotate(-11.42)"> </text><text class="cls-1" transform="matrix(0.99, -0.16, 0.16, 0.99, 392.07, 197.98)"> </text><text class="cls-1" transform="translate(445.7 189.1) rotate(-7.25)"> </text><text class="cls-1" transform="translate(499.58 182.21) rotate(-5.04)"> </text><text class="cls-1" transform="matrix(1, -0.05, 0.05, 1, 553.61, 177.42)"> </text><text class="cls-1" transform="translate(607.75 174.79) rotate(-0.34)"> </text><text class="cls-1" transform="translate(661.87 174.42) rotate(2.16)"> </text><text class="cls-1" transform="translate(715.91 176.42) rotate(4.76)"> </text><text class="cls-1" transform="translate(769.77 180.85) rotate(7.46)"> </text><text class="cls-1" transform="matrix(0.98, 0.18, -0.18, 0.98, 823.26, 187.81)"> </text><text class="cls-1" transform="translate(876.33 197.37) rotate(13.14)"> </text><text class="cls-1" transform="matrix(0.96, 0.28, -0.28, 0.96, 928.8, 209.56)"> </text><text class="cls-1" transform="translate(980.54 224.44) rotate(19.11)"> </text><text class="cls-1" transform="matrix(0.93, 0.38, -0.38, 0.93, 1031.4, 242.01)"> </text><text class="cls-1" transform="translate(1081.24 262.27) rotate(25.25)"> </text><text class="cls-1" transform="matrix(0.88, 0.47, -0.47, 0.88, 1129.91, 285.17)"> </text><text class="cls-1" transform="translate(1177.56 311.42) rotate(30.32)"> </text><text class="cls-1" transform="translate(1228.16 341.61) rotate(28.12)"> </text><text class="cls-1" transform="translate(1281.84 370.13) rotate(24.66)"> </text><text class="cls-1" transform="translate(1337.17 395.35) rotate(21.19)"> </text><text class="cls-1" transform="translate(1393.87 417.17) rotate(17.75)"> </text><text class="cls-1" transform="translate(1451.71 435.52) rotate(14.37)"> </text><text class="cls-1" transform="translate(1510.4 450.41) rotate(11.08)"> </text><text class="cls-1" transform="matrix(0.99, 0.14, -0.14, 0.99, 1569.68, 461.87)"> </text><text class="cls-1" transform="translate(1629.32 470.01) rotate(4.84)"> </text><text class="cls-1" transform="matrix(1, 0.03, -0.03, 1, 1689.11, 474.94)"> </text><text class="cls-1" transform="translate(1748.83 476.82) rotate(-0.89)"> </text><text class="cls-1" transform="matrix(1, -0.06, 0.06, 1, 1808.42, 475.79)"> </text><text class="cls-1" transform="translate(1867.69 472.02) rotate(-6.09)"> </text><text class="cls-1" transform="translate(1926.57 465.66) rotate(-8.51)"> </text><text class="cls-1" transform="matrix(0.98, -0.19, 0.19, 0.98, 1984.98, 456.84)"> </text><text class="cls-1" transform="translate(2042.86 445.7) rotate(-13.06)"> </text><text class="cls-1" transform="matrix(0.96, -0.26, 0.26, 0.96, 2100.15, 432.35)"> </text><text class="cls-1" transform="translate(2156.84 416.86) rotate(-17.35)"> </text><text class="cls-1" transform="translate(2212.92 399.28) rotate(-19.48)"> </text><text class="cls-1" transform="translate(2268.48 379.57) rotate(-21.71)"> </text><text class="cls-1" transform="matrix(0.91, -0.41, 0.41, 0.91, 2323.68, 357.55)"> </text><text class="cls-1" transform="translate(2378.37 332.35) rotate(-27.38)"> </text><text class="cls-1" transform="translate(2426.17 307.68) rotate(-24.29)"> </text><text class="cls-1" transform="translate(2475.61 285.37) rotate(-21.96)"> </text><text class="cls-1" transform="matrix(0.94, -0.34, 0.34, 0.94, 2526.01, 265.03)"> </text><text class="cls-1" transform="translate(2577.17 246.57) rotate(-17.74)"> </text><text class="cls-1" transform="translate(2628.93 229.98) rotate(-15.67)"> </text><text class="cls-1" transform="matrix(0.97, -0.23, 0.23, 0.97, 2681.27, 215.27)"> </text><text class="cls-1" transform="translate(2734.11 202.49) rotate(-11.42)"> </text><text class="cls-1" transform="matrix(0.99, -0.16, 0.16, 0.99, 2787.33, 191.71)"> </text><text class="cls-1" transform="translate(2840.88 182.99) rotate(-6.93)"> </text><text class="cls-1" transform="translate(2894.69 176.41) rotate(-4.57)"> </text><text class="cls-1" transform="matrix(1, -0.04, 0.04, 1, 2948.66, 172.07)"> </text><text class="cls-1" transform="translate(3002.76 170.03) rotate(0.42)"> </text><text class="cls-1" transform="matrix(1, 0.05, -0.05, 1, 3056.82, 170.38)"> </text><text class="cls-1" transform="translate(3110.75 173.21) rotate(5.75)"> </text><text class="cls-1" transform="translate(3164.46 178.57) rotate(8.53)"> </text><text class="cls-1" transform="matrix(0.98, 0.2, -0.2, 0.98, 3217.8, 186.53)"> </text><text class="cls-1" transform="translate(3270.64 197.11) rotate(14.29)"> </text><text class="cls-1" transform="translate(3322.87 210.37) rotate(17.23)"> </text><text class="cls-1" transform="translate(3374.32 226.28) rotate(20.2)"> </text><text class="cls-1" transform="translate(3424.88 244.84) rotate(23.17)"> </text><text class="cls-1" transform="translate(3474.44 266.01) rotate(26.13)"> </text><text class="cls-1" transform="matrix(0.87, 0.49, -0.49, 0.87, 3522.83, 289.7)"> </text><text class="cls-1" transform="matrix(0.87, 0.5, -0.5, 0.87, 3570.21, 316.93)"> </text><text class="cls-1" transform="matrix(0.89, 0.45, -0.45, 0.89, 3622.48, 347.42)"> </text><text class="cls-1" transform="translate(3677.24 374.83) rotate(23.05)"> </text><text class="cls-1" transform="translate(3733.26 398.47) rotate(19.58)"> </text><text class="cls-1" transform="matrix(0.96, 0.28, -0.28, 0.96, 3790.2, 418.56)"> </text><text class="cls-1" transform="matrix(0.97, 0.23, -0.23, 0.97, 3847.8, 435.37)"> </text><text class="cls-1" transform="translate(3905.79 449.13) rotate(10.78)"> </text><text class="cls-1" transform="translate(3964.05 460.13) rotate(8.32)"> </text><text class="cls-1" transform="translate(4022.42 468.59) rotate(6.06)"> </text><text class="cls-1" transform="translate(4080.78 474.72) rotate(3.99)"> </text><text class="cls-1" transform="translate(4139.09 478.72) rotate(2.07)"> </text><text class="cls-1" transform="matrix(1, 0.01, -0.01, 1, 4197.3, 480.77)"> </text><text class="cls-1" transform="matrix(1, -0.04, 0.04, 1, 4256.54, 481.55)">5</text><text class="cls-1" transform="translate(4370.93 476.65) rotate(-4.34)">.</text><text class="cls-1" transform="translate(4428.37 472.26) rotate(-5.7)"> </text><text class="cls-1" transform="translate(4486.46 466.82) rotate(-7.55)">b</text><text class="cls-1" transform="translate(4596.26 452.17) rotate(-9.8)">u</text><text class="cls-1" transform="matrix(0.98, -0.2, 0.2, 0.98, 4704.85, 433.19)">y</text><text class="cls-1" transform="translate(4793.71 414.54) rotate(-13.07)"> </text><text class="cls-1" transform="translate(4849.36 401.61) rotate(-14.1)">i</text><text class="cls-1" transform="translate(4904.85 387.69) rotate(-15.17)">f</text><text class="cls-1" transform="translate(4963.59 371.73) rotate(-16.29)"> </text><text class="cls-1" transform="matrix(0.95, -0.31, 0.31, 0.95, 5019.37, 355.68)">y</text><text class="cls-1" transform="translate(5111.12 323.81) rotate(-22.04)">o</text><text class="cls-1" transform="translate(5205.32 285.67) rotate(-18.34)">u</text><text class="cls-1" transform="translate(5305.99 252.9) rotate(-15.74)"> </text><text class="cls-1" transform="matrix(0.97, -0.24, 0.24, 0.97, 5358.5, 238.08)">l</text><text class="cls-1" transform="matrix(0.98, -0.21, 0.21, 0.98, 5411.42, 224.9)">i</text><text class="cls-1" transform="translate(5464.17 212.98) rotate(-9.51)">k</text><text class="cls-1" transform="matrix(0.99, -0.1, 0.1, 0.99, 5560.71, 196.69)">e</text><text class="cls-1" transform="matrix(1, -0.05, 0.05, 1, 5658.44, 187.14)"> </text><text class="cls-1" transform="translate(5712.62 184.4) rotate(-0.54)">:</text><text class="cls-1" transform="translate(5766.58 183.61) rotate(2.3)">)</text><text class="cls-1" transform="translate(5838.49 186.42) rotate(5.76)">)</text></g></g></svg>