<svg xmlns="http://www.w3.org/2000/svg" viewBox="0 0 6290.24 507.68"><defs><style>.cls-1{font-size:200px;fill:#449ad5;stroke:#fff;stroke-miterlimit:10;stroke-width:2px;font-family:Fenice-RegularOblique, ITC Fenice;font-style:oblique;}</style></defs><g id="Layer_2" data-name="Layer 2"><g id="Layer_1-2" data-name="Layer 1"><text class="cls-1" transform="matrix(0.94, -0.35, 0.35, 0.94, 72.17, 287.3)">h</text><text class="cls-1" transform="translate(170.79 250.51) rotate(-16.79)">o</text><text class="cls-1" transform="translate(267.6 220.45) rotate(-12.53)">w</text><text class="cls-1" transform="translate(403.24 191.57) rotate(-8.94)"> </text><text class="cls-1" transform="translate(456.78 183) rotate(-6.58)">t</text><text class="cls-1" transform="translate(520.89 174.95) rotate(-3.12)">o</text><text class="cls-1" transform="matrix(1, 0.01, -0.01, 1, 622.51, 170.06)"> </text><text class="cls-1" transform="matrix(1, 0.06, -0.06, 1, 676.18, 169.74)">s</text><text class="cls-1" transform="translate(765.82 175.09) rotate(8.58)">h</text><text class="cls-1" transform="translate(868.93 190.54) rotate(14.03)">o</text><text class="cls-1" transform="matrix(0.94, 0.34, -0.34, 0.94, 966.53, 214.64)">p</text><text class="cls-1" transform="translate(1064.84 250.86) rotate(24.23)"> </text><text class="cls-1" transform="translate(1113.65 271.7) rotate(28.64)">d</text><text class="cls-1" transform="translate(1204.66 323.9) rotate(28.92)">r</text><text class="cls-1" transform="translate(1281.82 365.71) rotate(24.66)">i</text><text class="cls-1" transform="matrix(0.94, 0.34, -0.34, 0.94, 1339.01, 392.85)">p</text><text class="cls-1" transform="matrix(0.97, 0.25, -0.25, 0.97, 1447.7, 429.97)">.</text><text class="cls-1" transform="translate(1506.33 445.09) rotate(11.3)">.</text><text class="cls-1" transform="translate(1565.59 456.79) rotate(8.11)">.</text></g></g></svg>