<svg id="Layer_1" data-name="Layer 1" xmlns="http://www.w3.org/2000/svg" viewBox="0 0 2067.03 501.31"><defs><style>.cls-1{fill:#f2cfe2;}.cls-2,.cls-4{fill:#4a9bd5;}.cls-3{fill:none;}.cls-3,.cls-4{stroke:#fff;stroke-miterlimit:10;stroke-width:0.5px;}</style></defs><polygon class="cls-1" points="116.88 140.96 29.04 252.39 29.04 369.06 89.64 443.04 193.94 426.99 209.36 301.25 116.88 140.96"/><path class="cls-2" d="M330.26,254c7.35,9.8,14.48,19.12,21.41,28.59,30.65,41.91,59.12,85.24,84.12,130.79,19.08,34.77,36.16,70.45,47.85,108.48,8.28,26.93,13.55,54.27,10.95,82.67-2.75,30-12.8,57.36-30.59,81.65-27.3,37.28-63.89,60.25-109.61,66.6-57.44,8-106.83-9.52-146.33-52.17-30.8-33.25-44.6-73.32-43-118.55.8-22.19,6-43.61,12.85-64.65,14.53-44.83,35.82-86.52,59.51-127a1261.72,1261.72,0,0,1,90.8-134C328.72,255.73,329.25,255.16,330.26,254ZM255.84,451.54l-.55-.15c-.54.87-1.14,1.71-1.6,2.63-5,9.91-10.18,19.7-14.81,29.77-12.21,26.59-22.31,53.88-26.91,83-5.35,33.85,3.12,64.5,21.92,92.46,9.4,14,23.05,21.73,40.23,21.32,19.34-.45,30.34-20.37,20.57-36.95-3.61-6.12-8.11-11.71-12.16-17.57-30.77-44.46-40.84-93.48-32.11-146.58C252,470.09,254,460.84,255.84,451.54Z" transform="translate(-164.71 -253.56)"/><path class="cls-3" d="M330.26,254c7.35,9.8,14.48,19.12,21.41,28.59,30.65,41.91,59.12,85.24,84.12,130.79,19.08,34.77,36.16,70.45,47.85,108.48,8.28,26.93,13.55,54.27,10.95,82.67-2.75,30-12.8,57.36-30.59,81.65-27.3,37.28-63.89,60.25-109.61,66.6-57.44,8-106.83-9.52-146.33-52.17-30.8-33.25-44.6-73.32-43-118.55.8-22.19,6-43.61,12.85-64.65,14.53-44.83,35.82-86.52,59.51-127a1261.72,1261.72,0,0,1,90.8-134C328.72,255.73,329.25,255.16,330.26,254ZM255.84,451.54l-.55-.15c-.54.87-1.14,1.71-1.6,2.63-5,9.91-10.18,19.7-14.81,29.77-12.21,26.59-22.31,53.88-26.91,83-5.35,33.85,3.12,64.5,21.92,92.46,9.4,14,23.05,21.73,40.23,21.32,19.34-.45,30.34-20.37,20.57-36.95-3.61-6.12-8.11-11.71-12.16-17.57-30.77-44.46-40.84-93.48-32.11-146.58C252,470.09,254,460.84,255.84,451.54Z" transform="translate(-164.71 -253.56)"/><path class="cls-4" d="M695.45,619.34l5.77-27.1h-.89c-12.25,20-30.83,34.2-61.48,34.2-41.75,0-73.62-42.2-57.15-119.49s63.41-120.38,109.16-120.38c22.21,0,37.77,12.44,43.35,34.21h.89l21.11-99.06H734.89L737,312h63.08L736.62,609.56h21.32l-2.08,9.78Zm-45.63-2.67c29.76,0,53.58-34.65,68.73-105.72,17-80,5.64-111.94-23.67-111.94C668.67,399,646.26,420.78,627,511,609.81,591.8,621.39,616.67,649.82,616.67Z" transform="translate(-164.71 -253.56)"/><path class="cls-4" d="M853.4,403.45h-24l2.08-9.77h64.86l-7,32.87h.89c14.82-25.76,33.85-40,62.27-40,11.1,0,23,4.89,29,8l-18.56,87.06h-9.77l-5.8-45.75c-3-23.54-5.33-33.32-16-33.32-18.21,0-43,32.88-51.51,72.85L851.23,609.56h29.31l-2.08,9.78H783.41l2.08-9.78h24Z" transform="translate(-164.71 -253.56)"/><path class="cls-4" d="M1031.14,609.56h21.32l-2.08,9.78H966l2.09-9.78h21.33l43.92-206.11H1012l2.08-9.77h63.07Zm41.23-291.39c14.21,0,23.13,10.21,19.91,25.32a31.8,31.8,0,0,1-30.71,25.32c-14.21,0-23.14-10.22-19.93-25.32A31.82,31.82,0,0,1,1072.37,318.17Z" transform="translate(-164.71 -253.56)"/><path class="cls-4" d="M1072.11,696.63l2.08-9.78h21.33l60.4-283.4h-21.33l2.09-9.77H1198l-5.58,26.21h.88c13.25-20.43,33.76-33.32,60-33.32,54.19,0,74.81,53.31,60.61,119.94-16.66,78.18-67.31,119.93-112.18,119.93q-34.64,0-43.82-32H1157l-19.69,92.39h24.87l-2.08,9.78ZM1243,399c-26.65,0-48.67,20-67.33,107.5C1159.23,583.8,1169.23,614,1199,614s50.68-23.09,68.67-107.49C1283.37,432.77,1273.69,399,1243,399Z" transform="translate(-164.71 -253.56)"/><path class="cls-4" d="M1359.76,528.71c.09,74.63,6.13,88,46.11,88,34.64,0,64.19-17.77,71.11-50.19,9.18-43.09-130.51-33.77-114.51-108.84,9.47-44.41,51.13-71.07,102.21-71.07,24,0,45.66,6.67,60.65,15.55l-15.24,71.52h-12.44c-5.09-65.75-7.52-77.29-39.05-77.29-28,0-57.95,15.54-63.16,40-11.93,56,129.85,36.87,113.28,114.61-9.66,45.31-55.18,75.51-108.49,75.51-23.1,0-49.67-6.66-69.57-19.55l16.66-78.18Z" transform="translate(-164.71 -253.56)"/><path class="cls-4" d="M1593.86,312h65.75L1637,418.12h.89c11.72-13.34,34.7-31.55,65.8-31.55,35.09,0,56.36,16.88,46,65.3l-33.61,157.69h24l-2.09,9.78h-91.5l2.08-9.78h25.77l34.74-163c7-32.87-.85-44-21.72-44-24.43,0-51.63,21.33-61.48,67.53l-29.72,139.47h25.76l-2.08,9.78h-91.51l2.08-9.78h24l61.34-287.84h-24Z" transform="translate(-164.71 -253.56)"/><path class="cls-4" d="M1917.32,386.57c55.09,0,86.42,48.87,71.28,119.94s-67.31,119.93-122.39,119.93-86.42-48.86-71.28-119.93S1862.24,386.57,1917.32,386.57Zm-49,230.1c33.32,0,55.75-24,74.11-110.16s6.16-110.16-27.16-110.16-55.75,24-74.11,110.16S1835,616.67,1868.29,616.67Z" transform="translate(-164.71 -253.56)"/><path class="cls-4" d="M1985.4,696.63l2.08-9.78h21.33l60.4-283.4h-21.33l2.09-9.77h61.29l-5.58,26.21h.89c13.24-20.43,33.75-33.32,60-33.32,54.19,0,74.81,53.31,60.61,119.94-16.66,78.18-67.31,119.93-112.17,119.93q-34.66,0-43.83-32h-.89l-19.69,92.39h24.88l-2.08,9.78ZM2156.33,399c-26.65,0-48.68,20-67.34,107.5C2072.52,583.8,2082.52,614,2112.28,614S2163,590.91,2181,506.51C2196.66,432.77,2187,399,2156.33,399Z" transform="translate(-164.71 -253.56)"/></svg>