<svg id="Layer_1" data-name="Layer 1" xmlns="http://www.w3.org/2000/svg" viewBox="0 0 6194.9 1137.63"><defs><style>.cls-1{fill:#449ad5;}</style></defs><path class="cls-1" d="M-3188.08,895.83c17.33,35.3,27.74,38,76.29,14.4,42.08-20.48,73.87-46.37,74.78-65.82,1.21-25.84-166.29,61.17-164.18,16.15,1.25-26.63,45.69-63.89,107.73-94.09,29.13-14.19,57-23.85,77.25-28.5l-2,42.89-15.1,7.35c-21.36-28.13-27-32.17-65.27-13.52-34,16.55-66.79,41.63-67.48,56.28-1.57,33.56,166.21-59.31,164-12.69-1.27,27.17-49.59,68.4-114.33,99.91-28,13.66-61.85,26.21-89,31.88l2.19-46.88Z" transform="translate(3205.38 152.09)"/><path class="cls-1" d="M-2929.7,659.93l85.09-25.4-13.27,62.34,1.15-.34c13.17-11.26,40.16-29.33,80.41-41.35,45.42-13.56,75.51-13.25,69.45,15.18l-19.71,92.6,31-9.27-1.22,5.74-118.44,35.36,1.22-5.74,33.35-10,20.38-95.73c4.11-19.3-7.73-21.88-34.75-13.81-31.62,9.44-63.61,30.71-69.39,57.84l-17.43,81.91,33.35-10-1.23,5.74-118.43,35.35,1.22-5.73,31.05-9.27,36-169-31.05,9.27Z" transform="translate(3205.38 152.09)"/><path class="cls-1" d="M-2461.81,635.26c74.36,2.7,115.74,30,93.94,66.65s-93.13,59.87-167.48,57.17-115.74-30-93.94-66.65S-2536.16,632.56-2461.81,635.26ZM-2532.36,754c45,1.64,75.71-9.9,102.14-54.38s10.39-57.71-34.58-59.35-75.71,9.91-102.14,54.39S-2577.33,752.4-2532.36,754Z" transform="translate(3205.38 152.09)"/><path class="cls-1" d="M-2409.36,806.37l5-3.16,25.22,13.9,143.48-91.46-25.23-13.9,5-3.15,72.52,39.95-13.26,8.46,1.05.58c20.85-.8,48.39,6.62,79.4,23.7,64.12,35.32,75,73.37,41.23,94.87-39.57,25.23-110.11,11.5-163.19-17.75q-41-22.57-43.72-43.32l-1.05-.58-46.78,29.82,29.43,16.21-4.95,3.15Zm277.85-26c-31.53-17.37-62.67-22.5-107,5.74-39.13,25-35,45.41.23,64.81s65.82,22.36,108.55-4.88C-2092.37,822.26-2095.25,800.36-2131.51,780.38Z" transform="translate(3205.38 152.09)"/><path class="cls-1" d="M-1825.59,823.4l127.16-17.8-2.07,5.49-44.56,6.24,53.9,74.93L-1587,795.19l-51.69,7.24,2.07-5.49,95.07-13.31-2.07,5.49-26.74,3.74-158.34,146.72c-33,30.86-53.52,38.93-87.38,43.67-22,3.08-36,2.92-42.91.34l14.69-38.92,13.07-1.84,6.91,22c3.43,11.81,12.09,12.72,21.6,11.39,23.76-3.33,49.27-23.2,71.63-46.66l-74-103.79-22.58,3.16Z" transform="translate(3205.38 152.09)"/><path class="cls-1" d="M-1423.65,710.75c69.18-27.37,118-19,112.79,23.33s-61.27,92.21-130.45,119.59-118,19-112.79-23.33S-1492.83,738.13-1423.65,710.75Zm-16.94,137.1c41.84-16.56,65.36-39.46,71.71-90.81s-13.64-57-55.49-40.46-65.37,39.46-71.71,90.8S-1482.44,864.41-1440.59,847.85Z" transform="translate(3205.38 152.09)"/><path class="cls-1" d="M-1021,629.71l-76.56,45-.56-17.6-1,.61c-7.9,16.86-34.48,42.53-66.55,61.38-47.59,28-71.75,30.5-72.61,3.31l-3-95.15-27.93,16.42-.19-5.87,76.56-45,3.34,105.55c.56,17.86,11.12,18.44,38,2.64,28.45-16.73,53.39-44.42,52.51-72.14l-2.65-83.69-30,17.63-.19-5.86,78.63-46.22,4.1,129.54,27.93-16.42Z" transform="translate(3205.38 152.09)"/><path class="cls-1" d="M-933.58,472.53l-31.17,8.85,1.3-5.72,84.27-23.93L-883.55,471l1.15-.33c15.55-18.52,38.21-32.74,75.15-43.23,14.44-4.1,30.52-6,38.77-6.63l-11.57,51-12.7,3.6-14.12-21.05c-7.26-10.83-11.73-14.92-25.59-11-23.66,6.72-51.12,32.52-56.43,55.93l-17.82,78.54L-868.62,567l-1.3,5.72-123.52,35.06,1.3-5.72L-961,593.2Z" transform="translate(3205.38 152.09)"/><path class="cls-1" d="M-531.48,428.71l28.74,1.88,7.86-12.39c13.14-20.72,49.45-30.78,115.3-26.47a388,388,0,0,1,50.69,6.6l-18.85,29.73-13.17-.86c-5.27-27.09-12.23-29.89-31.39-31.14-14.37-.94-31,1.72-38.16,13l-16,25.23,71.85,4.7-3.14,4.95-71.85-4.7-66.27,104.51,43.11,2.82-3.14,5L-604,543.12l3.14-5,28.74,1.88,66.27-104.5-28.74-1.88Z" transform="translate(3205.38 152.09)"/><path class="cls-1" d="M-333,499.69l30.69-30.4c33.87,5,64.31,10.41,94.78,19.51,71.87,21.46,91.56,43.46,79.81,55.1l-70.85,70.2,27.6,8.24-4.17,4.13-78.19-23.35,16.67-16.52-1.15-.34c-25.54,7.52-66.27,5.61-107.08-6.58-51.75-15.45-77.54-35.86-61.06-52.18,33.15-32.85,141.92,12.09,211,17.81L-175,525.6c11.93-11.82-2.69-22.54-33.16-31.64-40.24-12-58-8.53-112.1,9.51Zm133.09,50.5c-75-9.45-121.27-32.55-148.55-5.53-14.2,14.08-3.41,24.14,27.06,33.24,43.49,12.51,86.26,7.2,107.1-13.45Z" transform="translate(3205.38 152.09)"/><path class="cls-1" d="M-68.15,565.17,58.66,597.23l-4,4.3L9.3,590.06l9,92.57,1.16.3L165.2,629.48l-46.54-11.77,4-4.3,87.25,22.06-4,4.31-23.85-6L-9.72,703.56l-23.85-6-14.72-122-23.84-6Z" transform="translate(3205.38 152.09)"/><path class="cls-1" d="M356.57,637.86c73.88,8.71,112.92,39.24,88.23,74S347.12,764,273.23,755.3s-112.92-39.24-88.23-74S282.68,629.14,356.57,637.86ZM276.62,750.51c44.7,5.27,76.27-3.73,106.21-45.92s15-56.68-29.66-62-76.26,3.74-106.2,45.93S231.93,745.24,276.62,750.51Z" transform="translate(3205.38 152.09)"/><path class="cls-1" d="M743,778l-88.77-2.13,8.8-15.24-1.2,0c-15.6,10.16-51.72,18-88.91,17.07-55.18-1.33-77-11.92-63.44-35.47l47.62-82.44L524.71,659l2.93-5.08L616.42,656,563.6,747.48c-8.94,15.47-.27,21.53,30.92,22.28,33,.79,68.78-9.59,82.65-33.61l41.88-72.51-34.79-.83,2.94-5.08,91.17,2.18L713.55,772.14l32.39.78Z" transform="translate(3205.38 152.09)"/><path class="cls-1" d="M882.18,656.11l-32.34,2,2.49-5.31,87.44-5.33-8.38,17.86,1.2-.07c19.14-14.77,44.33-23.81,82.66-26.15a214.11,214.11,0,0,1,39.28,1.83l-22.21,47.31-13.17.81-9.29-23.59c-4.78-12.14-8.27-17.08-22.65-16.21-24.55,1.5-56.89,20.83-67.09,42.55L885.9,764.69l39.53-2.41-2.5,5.31-128.16,7.82,2.49-5.32,32.35-2Z" transform="translate(3205.38 152.09)"/><path class="cls-1" d="M1134.28,740l28.55-3.77-2.11,5.47-113,14.95,2.11-5.47,28.55-3.78L1122.9,632l-28.55,3.78,2.11-5.47,84.47-11.18Zm35-159.52c19-2.51,31.7,1.24,28.43,9.7s-20.34,16.15-39.37,18.67-31.7-1.24-28.43-9.7S1150.26,583,1169.29,580.5Z" transform="translate(3205.38 152.09)"/><path class="cls-1" d="M1246.58,605.44l37-7.71,9.28-30.63,55.21-11.52-9.28,30.63L1406.93,572l-1.7,5.61-68.14,14.22L1305.24,697c-2.94,9.7,5.22,11.82,27.54,7.17,25.26-5.27,42-15,47.67-33.86l6.19-20.41,12.92-2.7-5.72,18.89c-8.2,27-36.82,41.63-85,51.68-42.29,8.82-62.84,4-56.5-16.91l29.53-97.5-37,7.72Z" transform="translate(3205.38 152.09)"/><path class="cls-1" d="M1503.15,588.15a45.84,45.84,0,0,0-1.9,8.08c-8.56,50.75,15.69,59,58.79,44.08,48.2-16.65,85.19-42.8,96.37-77.36l12.48-4.31c-9,37.26-57.92,71-115.77,91-72,24.88-118.75,13.78-111.65-28.29s67-90,133.92-113.11c64.65-22.34,102.5-15.6,96.2,21.74Zm110.43-43.59,1.74-10.26c4.43-26.29-12.55-30.08-42-19.9-35.16,12.15-58.9,35.7-68.58,67.77Z" transform="translate(3205.38 152.09)"/><path class="cls-1" d="M1896.42,282.68l-.87.82,42.18,162.08,36.73-34.52,1.47,5.68-77.82,73.14-1.48-5.68,28.86-27.12L1882,289.84,1853.1,317l-1.47-5.67,83.94-78.9,162.13,8.24.88-.82-32.11-123.37-35,32.87-1.48-5.67,76.08-71.5,1.48,5.68-28.86,27.12,45,172.92-14.87,14Z" transform="translate(3205.38 152.09)"/><path class="cls-1" d="M2252.16,155.08l48.51-26.34v5.87L2163.56,209v-5.87L2195.21,186l.41-172.81L2164,30.37V24.5l267.88-145.43-.15,59.21-11.6,6.29c-30.46-33.26-41-31-69.47-15.54l-98.08,53.24-.2,80L2293.51,40c26.37-14.32,39-29.45,49.66-63.71l11.6-6.3-.19,79.47-11.6,6.3c-10.48-22.81-23.11-24.21-49.48-9.9l-41.13,22.33Z" transform="translate(3205.38 152.09)"/><path class="cls-1" d="M2515.46,49.1,2560,42.31l59-162.44-38.55,5.89c-26.69,4.08-34.13,7.58-75.56,58.42l-13,2,20-55.15,282.32-43.11-20,55.15-13.05,2c-7.21-43.41-12.82-44.92-39.51-40.85L2683-129.91,2624,32.53l44.48-6.8-2,5.52-153,23.37Z" transform="translate(3205.38 152.09)"/><path class="cls-1" d="M2764.34-20.65c-.82,39.32,7.17,46.54,61.16,47.85,46.78,1.13,86.91-7.26,96.65-24.12C2935.09-19.31,2746.35-19,2768.9-58c13.34-23.09,69.93-35.76,138.91-34.09,32.39.79,61.58,5,81.71,10.18L2968-44.74l-16.79-.4c-6-34.8-9.17-41-51.76-42-37.79-.92-78.45,6.29-85.79,19-16.81,29.09,174.87,23.68,151.52,64.09-13.61,23.55-75.47,38-147.45,36.22-31.19-.76-67-5.14-93.7-12.58L2747.55-21Z" transform="translate(3205.38 152.09)"/></svg>