<svg xmlns="http://www.w3.org/2000/svg" viewBox="0 0 6290.24 524.34"><defs><style>.cls-1{font-size:200px;fill:#449ad5;stroke:#fff;stroke-miterlimit:10;stroke-width:2px;font-family:Fenice-RegularOblique, ITC Fenice;font-style:oblique;}</style></defs><g id="Layer_2" data-name="Layer 2"><g id="Layer_1-2" data-name="Layer 1"><text class="cls-1" transform="matrix(0.95, -0.31, 0.31, 0.95, 156.53, 260.41)"> </text><text class="cls-1" transform="translate(208.29 243.4) rotate(-16.26)"> </text><text class="cls-1" transform="matrix(0.97, -0.25, 0.25, 0.97, 260.56, 228.13)"> </text><text class="cls-1" transform="translate(313.31 214.62) rotate(-12.38)"> </text><text class="cls-1" transform="translate(366.48 202.92) rotate(-10.36)"> </text><text class="cls-1" transform="translate(419.96 193.11) rotate(-8.28)"> </text><text class="cls-1" transform="matrix(0.99, -0.11, 0.11, 0.99, 473.7, 185.26)"> </text><text class="cls-1" transform="translate(527.66 179.45) rotate(-3.86)"> </text><text class="cls-1" transform="matrix(1, -0.03, 0.03, 1, 581.77, 175.77)"> </text><text class="cls-1" transform="translate(635.91 174.31) rotate(0.95)"> </text><text class="cls-1" transform="matrix(1, 0.06, -0.06, 1, 690.02, 175.16)"> </text><text class="cls-1" transform="translate(743.96 178.41) rotate(6.15)"> </text><text class="cls-1" transform="translate(797.65 184.15) rotate(8.9)"> </text><text class="cls-1" transform="matrix(0.98, 0.2, -0.2, 0.98, 850.93, 192.45)"> </text><text class="cls-1" transform="translate(903.7 203.38) rotate(14.67)"> </text><text class="cls-1" transform="translate(955.82 216.97) rotate(17.66)"> </text><text class="cls-1" transform="matrix(0.94, 0.35, -0.35, 0.94, 1007.11, 233.24)"> </text><text class="cls-1" transform="translate(1057.46 252.21) rotate(23.77)"> </text><text class="cls-1" transform="translate(1106.71 273.85) rotate(26.85)"> </text><text class="cls-1" transform="translate(1154.77 298.13) rotate(29.92)"> </text><text class="cls-1" transform="translate(1203.11 326.85) rotate(29.76)"> </text><text class="cls-1" transform="translate(1255.86 356.84) rotate(26.32)"> </text><text class="cls-1" transform="translate(1310.43 383.66) rotate(22.86)"> </text><text class="cls-1" transform="translate(1366.53 407.14) rotate(19.4)"> </text><text class="cls-1" transform="translate(1423.85 427.15) rotate(15.99)"> </text><text class="cls-1" transform="translate(1482.16 443.7) rotate(12.65)"> </text><text class="cls-1" transform="translate(1541.19 456.8) rotate(9.41)"> </text><text class="cls-1" transform="translate(1600.67 466.51) rotate(6.29)"> </text><text class="cls-1" transform="translate(1660.42 472.97) rotate(3.29)"> </text><text class="cls-1" transform="matrix(1, 0.01, -0.01, 1, 1720.19, 476.29)"> </text><text class="cls-1" transform="translate(1779.88 476.64) rotate(-2.29)"> </text><text class="cls-1" transform="matrix(1, -0.09, 0.09, 1, 1839.31, 474.16)"> </text><text class="cls-1" transform="matrix(0.99, -0.13, 0.13, 0.99, 1898.4, 469.02)"> </text><text class="cls-1" transform="translate(1957.01 461.37) rotate(-9.72)"> </text><text class="cls-1" transform="matrix(0.98, -0.21, 0.21, 0.98, 2015.15, 451.33)"> </text><text class="cls-1" transform="translate(2072.73 439.03) rotate(-14.19)"> </text><text class="cls-1" transform="matrix(0.96, -0.28, 0.28, 0.96, 2129.71, 424.56)"> </text><text class="cls-1" transform="matrix(0.95, -0.32, 0.32, 0.95, 2186.08, 407.98)"> </text><text class="cls-1" transform="translate(2241.89 389.3) rotate(-20.62)"> </text><text class="cls-1" transform="translate(2297.19 368.44) rotate(-22.97)"> </text><text class="cls-1" transform="matrix(0.9, -0.44, 0.44, 0.9, 2352.8, 344.88)"> </text><text class="cls-1" transform="translate(2402.94 319.16) rotate(-25.58)"> </text><text class="cls-1" transform="translate(2451.76 295.81) rotate(-23.04)"> </text><text class="cls-1" transform="matrix(0.93, -0.36, 0.36, 0.93, 2501.71, 274.56)"> </text><text class="cls-1" transform="translate(2551.71 254.67) rotate(-17.7)">3</text><text class="cls-1" transform="translate(2656.12 222.09) rotate(-14.58)">.</text><text class="cls-1" transform="matrix(0.98, -0.22, 0.22, 0.98, 2708.72, 208.37)"> </text><text class="cls-1" transform="translate(2761 196.01) rotate(-9.24)">p</text><text class="cls-1" transform="translate(2864.49 179.09) rotate(-4.84)">a</text><text class="cls-1" transform="translate(2965.91 171.16) rotate(-1.32)">i</text><text class="cls-1" transform="matrix(1, 0.03, -0.03, 1, 3019.64, 169.5)">r</text><text class="cls-1" transform="translate(3099.05 172.38) rotate(5.15)"> </text><text class="cls-1" transform="translate(3151.86 175.15) rotate(10.09)">w</text><text class="cls-1" transform="translate(3287.19 201.01) rotate(15.21)">i</text><text class="cls-1" transform="translate(3339.05 214.89) rotate(18.46)">t</text><text class="cls-1" transform="matrix(0.92, 0.39, -0.39, 0.92, 3399.99, 234.25)">h</text><text class="cls-1" transform="matrix(0.89, 0.46, -0.46, 0.89, 3496.08, 276.22)"> </text><text class="cls-1" transform="matrix(0.87, 0.5, -0.5, 0.87, 3543.54, 301.36)">a</text><text class="cls-1" transform="matrix(0.9, 0.43, -0.43, 0.9, 3639.38, 356.37)"> </text><text class="cls-1" transform="translate(3696.41 384.53) rotate(20.33)">p</text><text class="cls-1" transform="matrix(0.97, 0.26, -0.26, 0.97, 3805.04, 423.6)">r</text><text class="cls-1" transform="matrix(0.98, 0.19, -0.19, 0.98, 3882.54, 444.72)">o</text><text class="cls-1" transform="translate(3991.13 464.99) rotate(6.34)">d</text><text class="cls-1" transform="translate(4100.04 476.87) rotate(2.49)">u</text><text class="cls-1" transform="matrix(1, -0.01, 0.01, 1, 4212.15, 481.38)">c</text><text class="cls-1" transform="matrix(1, -0.05, 0.05, 1, 4311.73, 479.74)">t</text></g></g></svg>