<svg xmlns="http://www.w3.org/2000/svg" width="529.9mm" height="54.2mm" viewBox="0 0 1502 153.5"><defs><style>.cls-1{font-size:75px;fill:#449ad5;font-family:Fenice-RegularOblique, ITC Fenice;font-style:oblique;}</style></defs><g id="Layer_2" data-name="Layer 2"><g id="Layer_1-2" data-name="Layer 1"><text class="cls-1" transform="translate(30.8 87.2) rotate(-18.6)"> </text><text class="cls-1" transform="matrix(0.96, -0.27, 0.27, 0.96, 49.94, 80.77)"> </text><text class="cls-1" transform="matrix(0.98, -0.22, 0.22, 0.98, 69.38, 75.3)"> </text><text class="cls-1" transform="translate(89 70.9) rotate(-9.5)"> </text><text class="cls-1" transform="translate(108.9 67.5) rotate(-6.2)"> </text><text class="cls-1" transform="matrix(1, -0.05, 0.05, 1, 128.84, 65.31)"> </text><text class="cls-1" transform="matrix(1, 0.02, -0.02, 1, 148.84, 64.35)"> </text><text class="cls-1" transform="matrix(1, 0.09, -0.09, 1, 168.81, 64.69)"> </text><text class="cls-1" transform="translate(188.7 66.4) rotate(9.3)"> </text><text class="cls-1" transform="matrix(0.97, 0.24, -0.24, 0.97, 208.31, 69.61)"> </text><text class="cls-1" transform="translate(227.6 74.3) rotate(18.4)"> </text><text class="cls-1" transform="translate(246.4 80.5) rotate(23.1)"> </text><text class="cls-1" transform="translate(264.7 88.2) rotate(27.8)"> </text><text class="cls-1" transform="matrix(0.86, 0.5, -0.5, 0.86, 282.6, 98.08)"> </text><text class="cls-1" transform="translate(303.4 110) rotate(24.5)"> </text><text class="cls-1" transform="matrix(0.95, 0.32, -0.32, 0.95, 325.41, 119.82)"> </text><text class="cls-1" transform="matrix(0.97, 0.23, -0.23, 0.97, 348.21, 127.37)"> </text><text class="cls-1" transform="translate(371.4 132.6) rotate(7.8)"> </text><text class="cls-1" transform="translate(394.9 135.7) rotate(2.8)"> </text><text class="cls-1" transform="translate(418.3 136.8) rotate(-1.7)"> </text><text class="cls-1" transform="translate(441.5 136) rotate(-6)"> </text><text class="cls-1" transform="matrix(0.99, -0.17, 0.17, 0.99, 464.42, 133.49)"> </text><text class="cls-1" transform="matrix(0.97, -0.23, 0.23, 0.97, 486.97, 129.5)"> </text><text class="cls-1" transform="translate(509.1 124.1) rotate(-17)"> </text><text class="cls-1" transform="translate(530.9 117.4) rotate(-20.5)"> </text><text class="cls-1" transform="translate(552.7 109.3) rotate(-24.7)"> </text><text class="cls-1" transform="translate(571.9 99.9) rotate(-25.3)"> </text><text class="cls-1" transform="translate(590 91.3) rotate(-21.5)"> </text><text class="cls-1" transform="matrix(0.95, -0.31, 0.31, 0.95, 608.77, 83.91)"> </text><text class="cls-1" transform="translate(627.9 77.6) rotate(-15)"> </text><text class="cls-1" transform="matrix(0.98, -0.2, 0.2, 0.98, 647.34, 72.33)"> </text><text class="cls-1" transform="matrix(0.99, -0.14, 0.14, 0.99, 667.02, 68.22)"> </text><text class="cls-1" transform="translate(686.9 65.3) rotate(-4.7)"> </text><text class="cls-1" transform="matrix(1, -0.01, 0.01, 1, 706.81, 63.63)"> </text><text class="cls-1" transform="matrix(1, 0.06, -0.06, 1, 726.77, 63.29)"> </text><text class="cls-1" transform="translate(746.7 64.4) rotate(7.4)"> </text><text class="cls-1" transform="matrix(0.97, 0.24, -0.24, 0.97, 766.06, 66.17)">5</text><text class="cls-1" transform="translate(805 76.4) rotate(20.9)">.</text><text class="cls-1" transform="matrix(0.9, 0.43, -0.43, 0.9, 823.51, 83.46)"> </text><text class="cls-1" transform="translate(841.3 92) rotate(30.1)">b</text><text class="cls-1" transform="matrix(0.95, 0.32, -0.32, 0.95, 881.99, 114.86)">u</text><text class="cls-1" transform="translate(924.8 128.7) rotate(10.4)">y</text><text class="cls-1" transform="translate(960.3 134.8) rotate(5.5)"> </text><text class="cls-1" transform="matrix(1, 0.04, -0.04, 1, 982.89, 136.87)">i</text><text class="cls-1" transform="translate(1005.4 137.7) rotate(-0.6)">f</text><text class="cls-1" transform="matrix(1, -0.06, 0.06, 1, 1029, 137.42)"> </text><text class="cls-1" transform="matrix(0.99, -0.11, 0.11, 0.99, 1051.42, 136.27)">y</text><text class="cls-1" transform="translate(1086.4 132.5) rotate(-9.4)">o</text><text class="cls-1" transform="matrix(0.98, -0.22, 0.22, 0.98, 1126.57, 125.83)">u</text><text class="cls-1" transform="translate(1167.1 116.5) rotate(-15.1)"> </text><text class="cls-1" transform="translate(1188.2 110.8) rotate(-16.9)">l</text><text class="cls-1" transform="translate(1210.8 104.3) rotate(-21.6)">i</text><text class="cls-1" transform="matrix(0.94, -0.33, 0.33, 0.94, 1229.89, 95.82)">k</text><text class="cls-1" transform="translate(1264.2 83.7) rotate(-14.5)">e</text><text class="cls-1" transform="translate(1299.7 74.7) rotate(-10.5)"> </text><text class="cls-1" transform="translate(1319.6 71) rotate(-7.4)">:</text><text class="cls-1" transform="translate(1339.4 68.3) rotate(-3.6)">)</text><text class="cls-1" transform="translate(1366.1 66.5) rotate(1.2)">)</text></g></g></svg>