<svg xmlns="http://www.w3.org/2000/svg" viewBox="0 0 6290.24 519.94"><defs><style>.cls-1{font-size:200px;fill:#449ad5;stroke:#fff;stroke-miterlimit:10;stroke-width:2px;font-family:Fenice-RegularOblique, ITC Fenice;font-style:oblique;}</style></defs><g id="Layer_2" data-name="Layer 2"><g id="Layer_1-2" data-name="Layer 1"><text class="cls-1" transform="translate(129.29 270.14) rotate(-19.2)"> </text><text class="cls-1" transform="matrix(0.95, -0.3, 0.3, 0.95, 180.74, 252.21)"> </text><text class="cls-1" transform="translate(232.77 236.01) rotate(-15.36)"> </text><text class="cls-1" transform="translate(285.25 221.57) rotate(-13.43)"> </text><text class="cls-1" transform="translate(338.19 208.91) rotate(-11.44)"> </text><text class="cls-1" transform="matrix(0.99, -0.16, 0.16, 0.99, 391.51, 198.09)"> </text><text class="cls-1" transform="matrix(0.99, -0.13, 0.13, 0.99, 445.14, 189.18)"> </text><text class="cls-1" transform="translate(499 182.28) rotate(-5.07)"> </text><text class="cls-1" transform="translate(553.04 177.45) rotate(-2.77)"> </text><text class="cls-1" transform="translate(607.16 174.8) rotate(-0.37)"> </text><text class="cls-1" transform="translate(661.29 174.41) rotate(2.13)"> </text><text class="cls-1" transform="translate(715.33 176.38) rotate(4.73)"> </text><text class="cls-1" transform="matrix(0.99, 0.13, -0.13, 0.99, 769.18, 180.79)"> </text><text class="cls-1" transform="translate(822.69 187.72) rotate(10.23)"> </text><text class="cls-1" transform="translate(875.75 197.25) rotate(13.11)"> </text><text class="cls-1" transform="matrix(0.96, 0.28, -0.28, 0.96, 928.22, 209.41)"> </text><text class="cls-1" transform="translate(979.99 224.27) rotate(19.08)"> </text><text class="cls-1" transform="matrix(0.93, 0.38, -0.38, 0.93, 1030.85, 241.81)"> </text><text class="cls-1" transform="translate(1080.72 262.04) rotate(25.22)"> </text><text class="cls-1" transform="matrix(0.88, 0.47, -0.47, 0.88, 1129.39, 284.91)"> </text><text class="cls-1" transform="translate(1177.05 311.11) rotate(30.32)"> </text><text class="cls-1" transform="matrix(0.9, 0.45, -0.45, 0.9, 1229.31, 343.59)">2</text><text class="cls-1" transform="translate(1336.58 395.1) rotate(21.23)">.</text><text class="cls-1" transform="translate(1393.26 416.95) rotate(17.79)"> </text><text class="cls-1" transform="translate(1452.52 436.43) rotate(13.3)">s</text><text class="cls-1" transform="translate(1550.91 459.41) rotate(7.73)">e</text><text class="cls-1" transform="matrix(1, 0.06, -0.06, 1, 1656.41, 472.63)">l</text><text class="cls-1" transform="translate(1717.87 476.92) rotate(-0.49)">e</text><text class="cls-1" transform="translate(1824.82 475.6) rotate(-5.13)">c</text><text class="cls-1" transform="translate(1925.88 465.87) rotate(-8.7)">t</text><text class="cls-1" transform="matrix(0.98, -0.19, 0.19, 0.98, 1995.42, 455.01)"> </text><text class="cls-1" transform="translate(2054.24 443.63) rotate(-14.1)">y</text><text class="cls-1" transform="translate(2145.75 420.7) rotate(-17.8)">o</text><text class="cls-1" transform="matrix(0.93, -0.37, 0.37, 0.93, 2250.5, 386.97)">u</text><text class="cls-1" transform="matrix(0.88, -0.48, 0.48, 0.88, 2357.66, 344.21)">r</text><text class="cls-1" transform="translate(2428.1 306.76) rotate(-24.19)"> </text><text class="cls-1" transform="translate(2477.53 284.51) rotate(-21.8)">f</text><text class="cls-1" transform="matrix(0.95, -0.32, 0.32, 0.95, 2530.58, 262.61)">a</text><text class="cls-1" transform="translate(2626.97 230.16) rotate(-15.11)">v</text><text class="cls-1" transform="translate(2710.57 207.24) rotate(-11.42)">o</text><text class="cls-1" transform="translate(2809.86 186.99) rotate(-7.16)">u</text><text class="cls-1" transform="matrix(1, -0.05, 0.05, 1, 2914.12, 174.24)">r</text><text class="cls-1" transform="translate(2993.61 170.21) rotate(-0.01)">i</text><text class="cls-1" transform="matrix(1, 0.05, -0.05, 1, 3047.52, 170)">t</text><text class="cls-1" transform="translate(3111.72 172.5) rotate(6.93)">e</text><text class="cls-1" transform="translate(3208.6 184.96) rotate(10.89)"> </text><text class="cls-1" transform="translate(3260.85 193.28) rotate(15.74)">N</text><text class="cls-1" transform="matrix(0.93, 0.38, -0.38, 0.93, 3381.95, 227.61)">F</text><text class="cls-1" transform="translate(3485.06 269.94) rotate(28.05)">T</text></g></g></svg>