<svg xmlns="http://www.w3.org/2000/svg" width="529.9mm" height="54.3mm" viewBox="0 0 1502 154"><defs><style>.cls-1{font-size:75px;fill:#449ad5;stroke:#fff;stroke-miterlimit:10;stroke-width:0.5px;font-family:Fenice-RegularOblique, ITC Fenice;font-style:oblique;}</style></defs><g id="Layer_2" data-name="Layer 2"><g id="Layer_1-2" data-name="Layer 1"><text class="cls-1" transform="translate(30.7 87.5) rotate(-18.7)"> </text><text class="cls-1" transform="translate(49.8 81.1) rotate(-15.7)"> </text><text class="cls-1" transform="matrix(0.98, -0.22, 0.22, 0.98, 69.23, 75.58)"> </text><text class="cls-1" transform="translate(88.9 71.1) rotate(-9.5)"> </text><text class="cls-1" transform="translate(108.7 67.8) rotate(-6.2)"> </text><text class="cls-1" transform="matrix(1, -0.05, 0.05, 1, 128.71, 65.57)"> </text><text class="cls-1" transform="matrix(1, 0.02, -0.02, 1, 148.7, 64.6)"> </text><text class="cls-1" transform="matrix(1, 0.09, -0.09, 1, 168.67, 64.93)"> </text><text class="cls-1" transform="translate(188.6 66.7) rotate(9.3)"> </text><text class="cls-1" transform="translate(208.2 69.8) rotate(13.7)"> </text><text class="cls-1" transform="matrix(0.95, 0.31, -0.31, 0.95, 227.46, 74.5)"> </text><text class="cls-1" transform="translate(246.1 79.9) rotate(25.4)">2</text><text class="cls-1" transform="translate(282.5 98.2) rotate(30.2)">.</text><text class="cls-1" transform="translate(303.3 110.2) rotate(24.5)"> </text><text class="cls-1" transform="translate(326.1 120.8) rotate(16.9)">s</text><text class="cls-1" transform="translate(364.6 132) rotate(7.5)">e</text><text class="cls-1" transform="translate(405.6 136.7) rotate(0.7)">l</text><text class="cls-1" transform="translate(429.9 137.2) rotate(-5.4)">e</text><text class="cls-1" transform="translate(471 133) rotate(-12.2)">c</text><text class="cls-1" transform="translate(509 124.5) rotate(-17.3)">t</text><text class="cls-1" transform="translate(534.9 116.3) rotate(-21.2)"> </text><text class="cls-1" transform="translate(557 107.7) rotate(-26.3)">y</text><text class="cls-1" transform="translate(585.6 93.1) rotate(-20.8)">o</text><text class="cls-1" transform="translate(620.7 79.6) rotate(-14.7)">u</text><text class="cls-1" transform="translate(658.5 69.9) rotate(-9)">r</text><text class="cls-1" transform="matrix(1, -0.08, 0.08, 1, 687.74, 65.44)"> </text><text class="cls-1" transform="matrix(1, -0.01, 0.01, 1, 707.66, 63.81)">f</text><text class="cls-1" transform="translate(728.6 63.1) rotate(5.4)">a</text><text class="cls-1" transform="translate(765.7 66.7) rotate(13)">v</text><text class="cls-1" transform="matrix(0.93, 0.36, -0.36, 0.93, 796.62, 73.49)">o</text><text class="cls-1" transform="translate(831.3 86.6) rotate(29.5)">u</text><text class="cls-1" transform="translate(869.2 108.7) rotate(23.3)">r</text><text class="cls-1" transform="matrix(0.96, 0.28, -0.28, 0.96, 900.99, 121.78)">i</text><text class="cls-1" transform="translate(923.8 128.5) rotate(11.4)">t</text><text class="cls-1" transform="translate(951.4 134.1) rotate(5.6)">e</text><text class="cls-1" transform="translate(991.2 137.6) rotate(1.2)"> </text><text class="cls-1" transform="translate(1014.5 138.5) rotate(-3.1)">N</text><text class="cls-1" transform="translate(1065.6 135.4) rotate(-7.8)">F</text><text class="cls-1" transform="translate(1110.2 129.1) rotate(-11.4)">T</text></g></g></svg>