<svg xmlns="http://www.w3.org/2000/svg" width="529.9mm" height="54.2mm" viewBox="0 0 1502 153.5"><defs><style>.cls-1{font-size:75px;fill:#449ad5;font-family:Fenice-RegularOblique, ITC Fenice;font-style:oblique;}</style></defs><g id="Layer_2" data-name="Layer 2"><g id="Layer_1-2" data-name="Layer 1"><text class="cls-1" transform="translate(37.2 85) rotate(-17.6)"> </text><text class="cls-1" transform="translate(56.4 78.8) rotate(-14.7)"> </text><text class="cls-1" transform="translate(75.9 73.7) rotate(-11.6)"> </text><text class="cls-1" transform="translate(95.7 69.6) rotate(-8.4)"> </text><text class="cls-1" transform="translate(115.6 66.6) rotate(-5)"> </text><text class="cls-1" transform="translate(135.6 64.9) rotate(-1.4)"> </text><text class="cls-1" transform="matrix(1, 0.04, -0.04, 1, 155.57, 64.32)"> </text><text class="cls-1" transform="matrix(0.99, 0.11, -0.11, 0.99, 175.52, 65.12)"> </text><text class="cls-1" transform="translate(195.3 67.3) rotate(10.8)"> </text><text class="cls-1" transform="translate(214.8 71) rotate(15.3)"> </text><text class="cls-1" transform="translate(234 76.2) rotate(20)"> </text><text class="cls-1" transform="translate(252.6 82.9) rotate(24.7)"> </text><text class="cls-1" transform="translate(270.6 91.2) rotate(29.4)"> </text><text class="cls-1" transform="translate(289.4 102.3) rotate(28.3)"> </text><text class="cls-1" transform="translate(310.7 113.5) rotate(22.5)"> </text><text class="cls-1" transform="translate(333 122.6) rotate(16.8)"> </text><text class="cls-1" transform="matrix(0.98, 0.2, -0.2, 0.98, 355.95, 129.39)"> </text><text class="cls-1" transform="translate(379.3 133.9) rotate(6.1)"> </text><text class="cls-1" transform="matrix(1, 0.02, -0.02, 1, 402.77, 136.3)"> </text><text class="cls-1" transform="matrix(1, -0.09, 0.09, 1, 427.32, 137.19)">3</text><text class="cls-1" transform="translate(472 132.3) rotate(-11.1)">.</text><text class="cls-1" transform="matrix(0.97, -0.25, 0.25, 0.97, 494.43, 127.85)"> </text><text class="cls-1" transform="translate(517.5 122.1) rotate(-19.8)">p</text><text class="cls-1" transform="translate(558.5 106.6) rotate(-26.2)">a</text><text class="cls-1" transform="translate(592.5 90.3) rotate(-21.1)">i</text><text class="cls-1" transform="matrix(0.96, -0.29, 0.29, 0.96, 611.1, 82.9)">r</text><text class="cls-1" transform="translate(639.5 74.3) rotate(-13.1)"> </text><text class="cls-1" transform="translate(658.4 69) rotate(-7)">w</text><text class="cls-1" transform="translate(709.4 63.5) rotate(-0.3)">i</text><text class="cls-1" transform="matrix(1, 0.07, -0.07, 1, 729.3, 63.27)">t</text><text class="cls-1" transform="translate(752.8 64.4) rotate(10.9)">h</text><text class="cls-1" transform="matrix(0.95, 0.3, -0.3, 0.95, 790.89, 72.2)"> </text><text class="cls-1" transform="translate(809.6 77.5) rotate(24)">a</text><text class="cls-1" transform="matrix(0.86, 0.51, -0.51, 0.86, 843.77, 93.23)"> </text><text class="cls-1" transform="translate(864.5 106.4) rotate(23.4)">p</text><text class="cls-1" transform="translate(906.6 123.6) rotate(14.3)">r</text><text class="cls-1" transform="translate(937 131.4) rotate(7.8)">o</text><text class="cls-1" transform="translate(979 136.9) rotate(1.6)">d</text><text class="cls-1" transform="translate(1020.7 137.9) rotate(-3.4)">u</text><text class="cls-1" transform="translate(1063.1 135.3) rotate(-7.3)">c</text><text class="cls-1" transform="matrix(0.98, -0.17, 0.17, 0.98, 1100.33, 130.33)">t</text></g></g></svg>