<svg xmlns="http://www.w3.org/2000/svg" viewBox="0 0 6290.24 515.54"><defs><style>.cls-1{font-size:200px;fill:#449ad5;stroke:#fff;stroke-miterlimit:10;stroke-width:2px;font-family:Fenice-RegularOblique, ITC Fenice;font-style:oblique;}</style></defs><g id="Layer_2" data-name="Layer 2"><g id="Layer_1-2" data-name="Layer 1"><text class="cls-1" transform="translate(155.5 256.37) rotate(-18.21)"> </text><text class="cls-1" transform="translate(207.24 239.32) rotate(-16.3)"> </text><text class="cls-1" transform="translate(259.54 224.01) rotate(-14.38)"> </text><text class="cls-1" transform="translate(312.26 210.47) rotate(-12.42)"> </text><text class="cls-1" transform="translate(365.4 198.74) rotate(-10.4)"> </text><text class="cls-1" transform="translate(418.89 188.89) rotate(-8.32)"> </text><text class="cls-1" transform="matrix(0.99, -0.11, 0.11, 0.99, 472.63, 181)"> </text><text class="cls-1" transform="translate(526.61 175.15) rotate(-3.9)"> </text><text class="cls-1" transform="translate(579.95 170.55) rotate(-0.34)">1</text><text class="cls-1" transform="translate(688.92 170.72) rotate(3.45)">.</text><text class="cls-1" transform="translate(742.9 173.92) rotate(6.1)"> </text><text class="cls-1" transform="translate(796.09 178.84) rotate(9.88)">c</text><text class="cls-1" transform="translate(887.98 194.49) rotate(15.1)">o</text><text class="cls-1" transform="translate(985.07 220.39) rotate(20.83)">n</text><text class="cls-1" transform="translate(1082.36 257.21) rotate(26.77)">n</text><text class="cls-1" transform="matrix(0.86, 0.5, -0.5, 0.86, 1175.75, 306.2)">e</text><text class="cls-1" transform="translate(1270.13 360.71) rotate(24.23)">c</text><text class="cls-1" transform="matrix(0.94, 0.33, -0.33, 0.94, 1365.18, 402.4)">t</text><text class="cls-1" transform="matrix(0.96, 0.27, -0.27, 0.96, 1433.52, 425.76)"> </text><text class="cls-1" transform="matrix(0.98, 0.19, -0.19, 0.98, 1493.25, 442.61)">y</text><text class="cls-1" transform="translate(1588.47 461.25) rotate(5.69)">o</text><text class="cls-1" transform="translate(1700.07 471.98) rotate(0.17)">u</text><text class="cls-1" transform="translate(1814.25 471.48) rotate(-4.36)">r</text><text class="cls-1" transform="translate(1899.95 464.45) rotate(-7.42)"> </text><text class="cls-1" transform="translate(1961.4 457.72) rotate(-11.53)">w</text><text class="cls-1" transform="translate(2106.16 427.04) rotate(-16.31)">a</text><text class="cls-1" transform="translate(2209.93 395.88) rotate(-19.37)">l</text><text class="cls-1" transform="translate(2265.5 376.29) rotate(-21.59)">l</text><text class="cls-1" transform="translate(2322.79 354.4) rotate(-25.37)">e</text><text class="cls-1" transform="translate(2413.57 309.26) rotate(-24.69)">t</text></g></g></svg>