<svg xmlns="http://www.w3.org/2000/svg" width="529.9mm" height="54.2mm" viewBox="0 0 1502 153.5"><defs><style>.cls-1{font-size:75px;fill:#449ad5;font-family:Fenice-RegularOblique, ITC Fenice;font-style:oblique;}</style></defs><g id="Layer_2" data-name="Layer 2"><g id="Layer_1-2" data-name="Layer 1"><text class="cls-1" transform="translate(37.2 85) rotate(-17.6)"> </text><text class="cls-1" transform="translate(56.4 78.8) rotate(-14.7)"> </text><text class="cls-1" transform="translate(75.9 73.7) rotate(-11.6)"> </text><text class="cls-1" transform="translate(95.7 69.6) rotate(-8.4)"> </text><text class="cls-1" transform="translate(115.6 66.6) rotate(-5)"> </text><text class="cls-1" transform="translate(135.6 64.9) rotate(-1.4)"> </text><text class="cls-1" transform="matrix(1, 0.04, -0.04, 1, 155.57, 64.32)"> </text><text class="cls-1" transform="matrix(0.99, 0.11, -0.11, 0.99, 175.52, 65.12)"> </text><text class="cls-1" transform="translate(195.3 67.3) rotate(10.8)"> </text><text class="cls-1" transform="translate(214.8 71) rotate(15.3)"> </text><text class="cls-1" transform="translate(233.7 75.5) rotate(22.2)">p</text><text class="cls-1" transform="translate(269.3 90.2) rotate(30.3)">a</text><text class="cls-1" transform="translate(306.3 111.4) rotate(23.7)">i</text><text class="cls-1" transform="matrix(0.96, 0.29, -0.29, 0.96, 329.03, 121.46)">r</text><text class="cls-1" transform="translate(362.1 130.8) rotate(9.9)"> </text><text class="cls-1" transform="translate(386.3 135.1) rotate(3.3)">y</text><text class="cls-1" transform="translate(423.9 137.2) rotate(-4.4)">o</text><text class="cls-1" transform="translate(466.9 133.6) rotate(-11.8)">u</text><text class="cls-1" transform="translate(509.5 124.2) rotate(-17.8)">r</text><text class="cls-1" transform="translate(540.8 113.9) rotate(-22.2)"> </text><text class="cls-1" transform="translate(561.5 104.6) rotate(-24.8)">N</text><text class="cls-1" transform="translate(604.3 85.1) rotate(-17.2)">F</text><text class="cls-1" transform="translate(644.1 72.7) rotate(-10.8)">T</text><text class="cls-1" transform="translate(681.3 66) rotate(-5.7)"> </text><text class="cls-1" transform="translate(700.5 63) rotate(1.1)">w</text><text class="cls-1" transform="matrix(0.99, 0.15, -0.15, 0.99, 751.68, 64.86)">i</text><text class="cls-1" transform="translate(771.3 67.7) rotate(13.4)">t</text><text class="cls-1" transform="translate(794.3 72.5) rotate(20.5)">h</text><text class="cls-1" transform="matrix(0.89, 0.46, -0.46, 0.89, 830.44, 86.55)"> </text><text class="cls-1" transform="translate(848.8 96.9) rotate(28.3)">a</text><text class="cls-1" transform="matrix(0.94, 0.34, -0.34, 0.94, 887.9, 116.69)"> </text><text class="cls-1" transform="translate(911.3 125.3) rotate(12.3)">p</text><text class="cls-1" transform="translate(954.4 134.1) rotate(5.7)">r</text><text class="cls-1" transform="translate(984.7 137.3) rotate(0.9)">o</text><text class="cls-1" transform="translate(1026.3 137.8) rotate(-3.9)">d</text><text class="cls-1" transform="translate(1067.4 134.9) rotate(-7.8)">u</text><text class="cls-1" transform="matrix(0.98, -0.19, 0.19, 0.98, 1109.06, 129.02)">c</text><text class="cls-1" transform="matrix(0.97, -0.23, 0.23, 0.97, 1145.76, 121.63)">t</text></g></g></svg>